<svg width="107" height="34" viewBox="0 0 107 34" fill="none" xmlns="http://www.w3.org/2000/svg">
<path d="M13 0C19.4624 0 24.8224 4.71567 25.8291 10.8936H15.415V27.8936H26V34H0V13C1.28854e-07 5.82034 5.82035 6.33943e-05 13 0Z" fill="#1D2026"/>
<path d="M106.941 25.484C106.941 27.145 105.793 28.3227 104.132 28.3227C102.471 28.3227 101.294 27.145 101.294 25.484C101.294 23.7929 102.471 22.6152 104.132 22.6152C105.793 22.6152 106.941 23.7929 106.941 25.484Z" fill="#1D2026"/>
<path d="M100.891 20.1088C100.891 24.8801 98.0821 28.4737 93.7336 28.4737C91.8311 28.4737 90.2004 27.6583 88.9924 26.088V34H84.7949V12.0458H88.6603V14.4013C89.8984 12.68 91.6801 11.7438 93.7336 11.7438C98.0821 11.7438 100.891 15.3676 100.891 20.1088ZM96.5722 20.1088C96.5722 17.0889 94.8509 15.4582 92.7974 15.4582C90.7439 15.4582 89.0226 17.0587 89.0226 20.1088C89.0226 23.1588 90.7439 24.7291 92.7974 24.7291C94.8509 24.7291 96.5722 23.189 96.5722 20.1088Z" fill="#1D2026"/>
<path d="M78.0639 21.3771V12.0458H82.2313V28.1717H78.3961V26.0578C77.5203 27.4771 75.7386 28.4737 73.6851 28.4737C70.4539 28.4737 68.0984 26.5108 68.0984 22.3132V12.0458H72.296V21.4979C72.296 23.7627 73.4134 24.7593 75.1045 24.7593C76.6144 24.7593 78.0639 23.5514 78.0639 21.3771Z" fill="#1D2026"/>
<path d="M58.5949 28.4737C53.9142 28.4737 50.4112 24.7895 50.4112 20.1088C50.4112 15.3978 53.9142 11.7438 58.5949 11.7438C63.2757 11.7438 66.7787 15.3978 66.7787 20.1088C66.7787 24.7895 63.2757 28.4737 58.5949 28.4737ZM58.5949 24.7593C60.6786 24.7593 62.4603 23.0984 62.4603 20.1088C62.4603 17.1191 60.6786 15.4884 58.5949 15.4884C56.5113 15.4884 54.7296 17.1191 54.7296 20.1088C54.7296 23.0984 56.5113 24.7593 58.5949 24.7593Z" fill="#1D2026"/>
<path d="M42.2187 28.4737C37.5682 28.4737 34.3671 25.0311 34.3671 20.1088C34.3671 15.277 37.6889 11.7438 42.2187 11.7438C46.4163 11.7438 49.5267 14.5825 50.0401 18.931H45.6311C45.4197 16.7869 44.1212 15.4582 42.2187 15.4582C40.0444 15.4582 38.6553 17.2399 38.6553 20.1088C38.6553 23.0078 40.0142 24.7593 42.2187 24.7593C44.1514 24.7593 45.3895 23.491 45.6311 21.2865H50.0401C49.5569 25.7256 46.5371 28.4737 42.2187 28.4737Z" fill="#1D2026"/>
</svg>
